PathFileType	3	(X/Y/Z)	results
DataRate	CameraRate	NumFrames	NumMarkers	Units	OrigDataRate	OrigDataStartFrame	OrigNumFrames
30.0	30.0	4	85	mm	30.0	31	243
Frame#	Time	head			nose			neck			shoulder_r			elbow_r			wrist_r			shoulder_l			elbow_l			wrist_l			hip_r			knee_r			ankle_r			hip_l			knee_l			ankle_l			heel_r			heel_l			mtoe_r			ltoe_r			mtoe_l			ltoe_l			asis_l			asis_r			psi_r			psi_l			mhnd_r			lhnd_r			mhnd_l			lhnd_l			l_lat_knee			r_med_wrist			l_lat_ankle			r_med_ankle			r_lat_knee			xiphoid			l_med_ankle			r_med_knee			l_med_elbow			navel			r_lat_elbow			r_lat_wrist			l_med_wrist			l_lat_elbow			l_med_knee			r_med_elbow			r_lat_ankle			l_lat_wrist			chin			T10			r_eye			l_eye			l_ear			r_ear			spinal_cord_8			spinal_cord_12			spinal_cord_27			spinal_cord_33			up_arm_r_0			up_arm_r_5			up_arm_l_0			up_arm_l_5			front_torso_11			front_torso_7			front_torso_4			front_torso_1			front_torso_10			thigh_r_2			thigh_r_3			thigh_l_1			thigh_l_5			shank_l_0			shank_l_4			shank_r_1			shank_r_2			foot_r_1			foot_r_3			foot_r_5			foot_r_6			foot_r_7			foot_l_1			foot_l_7			foot_l_0			foot_l_4			foot_l_5			foot_l_6			
		X1	Y1	Z1	X2	Y2	Z2	X3	Y3	Z3	X4	Y4	Z4	X5	Y5	Z5	X6	Y6	Z6	X7	Y7	Z7	X8	Y8	Z8	X9	Y9	Z9	X10	Y10	Z10	X11	Y11	Z11	X12	Y12	Z12	X13	Y13	Z13	X14	Y14	Z14	X15	Y15	Z15	X16	Y16	Z16	X17	Y17	Z17	X18	Y18	Z18	X19	Y19	Z19	X20	Y20	Z20	X21	Y21	Z21	X22	Y22	Z22	X23	Y23	Z23	X24	Y24	Z24	X25	Y25	Z25	X26	Y26	Z26	X27	Y27	Z27	X28	Y28	Z28	X29	Y29	Z29	X30	Y30	Z30	X31	Y31	Z31	X32	Y32	Z32	X33	Y33	Z33	X34	Y34	Z34	X35	Y35	Z35	X36	Y36	Z36	X37	Y37	Z37	X38	Y38	Z38	X39	Y39	Z39	X40	Y40	Z40	X41	Y41	Z41	X42	Y42	Z42	X43	Y43	Z43	X44	Y44	Z44	X45	Y45	Z45	X46	Y46	Z46	X47	Y47	Z47	X48	Y48	Z48	X49	Y49	Z49	X50	Y50	Z50	X51	Y51	Z51	X52	Y52	Z52	X53	Y53	Z53	X54	Y54	Z54	X55	Y55	Z55	X56	Y56	Z56	X57	Y57	Z57	X58	Y58	Z58	X59	Y59	Z59	X60	Y60	Z60	X61	Y61	Z61	X62	Y62	Z62	X63	Y63	Z63	X64	Y64	Z64	X65	Y65	Z65	X66	Y66	Z66	X67	Y67	Z67	X68	Y68	Z68	X69	Y69	Z69	X70	Y70	Z70	X71	Y71	Z71	X72	Y72	Z72	X73	Y73	Z73	X74	Y74	Z74	X75	Y75	Z75	X76	Y76	Z76	X77	Y77	Z77	X78	Y78	Z78	X79	Y79	Z79	X80	Y80	Z80	X81	Y81	Z81	X82	Y82	Z82	X83	Y83	Z83	X84	Y84	Z84	X85	Y85	Z85	
31	1.0333333333333332	227.60665059098736	1174.4908372881464	-440.8747207717682	197.24109294338612	998.8395551120772	-556.7131580155389	222.01173268056306	912.8395598446028	-393.33008610911054	389.4899388736171	851.187672978878	-456.80912000596885	502.9469631348812	660.0482283422785	-596.7031823331931	336.0975774015718	772.5138408499768	-699.6867357743427	63.44268780712126	839.6236582111248	-385.4054546396484	-56.469834908246675	708.4794931127401	-586.7456679964527	143.69964112247837	772.4312608570915	-701.5529587987846	357.28780654773544	526.4762417323001	-60.54663911192057	342.11660431213784	411.5201226241759	-446.45879918314745	420.7070362933004	109.78166497766145	-208.89820662698892	152.72203268933987	532.9574363673447	-34.68503663598363	36.68084732719548	417.47313184217114	-410.2727895466266	76.0728371407765	107.01969072636264	-185.70985076483683	427.84388736052523	61.490004470761846	-167.11597768617386	77.88365317842474	49.675160742168295	-138.15787071066524	432.87757215043484	23.07738870694625	-390.1575056117248	497.4151715622024	34.156315789897576	-328.880332893743	91.62359727446982	48.55052587989249	-366.8440687854584	14.922920756495122	19.115611917906747	-311.4301697502486	97.69998055492468	545.5266541374509	-107.44151812246653	397.8337147336225	536.5446846382464	-140.63904312765587	310.99415469079594	660.7282652360504	-48.33415460005962	208.3287371670678	659.1393304482829	-39.19910989829037	285.4487219014692	783.753924532852	-751.5523479831511	277.4889652740232	830.6334816586356	-726.8948612322946	194.10167640501763	774.3698844419952	-758.7411864223429	221.05386223727243	807.1378714141097	-726.2514029148095	-5.167253320178478	430.8564157877004	-382.88081228372573	346.0919206440006	753.095945241164	-717.9021779862921	26.629603384170274	97.54547909646865	-164.58923411812094	391.662264252329	84.98963202509697	-215.0226028802765	384.4198252137091	417.62142997855807	-441.52014075237287	226.81866033183394	723.6533322337971	-351.31607987391817	104.76411836765813	89.72385086798978	-195.1826325287645	301.276889344415	412.5079007115932	-432.51120229292616	-48.6419385451306	681.9762274938954	-562.253319717993	239.49256894503486	551.0942226218466	-216.94812641653638	523.8466825797183	691.4815758445802	-610.3998673721514	333.77793399352674	781.9466402164614	-669.8683560221118	121.07812227907935	763.8827482314468	-724.4661569896156	-66.92170482629997	747.743758267782	-591.1400214124122	87.23678330709195	433.4602106139339	-407.0061284938108	479.00248875468986	639.7738808613221	-577.061923969652	470.7139049112773	106.90070787255922	-198.7390158576366	146.08242493240468	787.0965533930156	-673.1369283582349	204.6701555421336	923.4574910985434	-537.5198538968668	246.29027591229405	862.2419022784082	-214.91201357264126	228.3419850180051	1031.0673874528477	-565.3196042502619	161.87917721610347	1029.233379035174	-546.823775417837	138.83715368317917	1024.2729246691852	-434.65825386367516	304.45377228229063	1025.7471888306102	-478.0354213749469	222.35557894477384	989.366327182272	-396.5163252183965	236.03241742252735	936.622047417409	-280.8676948888293	268.8219057709721	738.8597782349608	-127.92668935896018	245.5702365286491	846.4155759941311	-218.0996307515019	424.4407200225846	772.3082489243809	-564.221624659549	487.44826171878583	735.549329405995	-513.731997682057	25.457916405535872	838.4253116643549	-434.2399527013857	-29.569723394507335	711.5334965742553	-504.94102906847485	291.29476407130886	597.4469907638982	-212.77672486654302	231.50249425818325	638.6485001860862	-316.45225138920017	155.9540226087212	754.2667446752952	-376.85599768553294	166.71595362931097	621.1359754437283	-222.35448775977574	301.1410412027144	777.7144246979717	-429.326212573315	331.815329319077	465.3355343833901	-260.02389077869816	424.924787676081	463.2858150314242	-300.20473909313074	119.45313336610953	446.47592026723714	-299.04411857889426	29.370280687090162	536.8925170929895	-113.43198226692436	-0.7077594995994752	176.75541333089186	-235.55332193855753	98.43382519830321	294.47129197010145	-335.84674298779413	432.1686306976367	299.4865861114953	-341.27279837978307	345.2737907016499	239.79414142077417	-328.04689404298495	456.33381143549866	20.953398627780754	-370.80863428812273	479.74787553194693	27.69717593738608	-354.0207794655458	416.9736438274676	43.452128837048555	-309.64344438928646	452.6660593081222	56.033751303042024	-296.69787093922105	484.77183543581344	47.817327522822154	-282.38785528180534	45.13769519614254	25.929702004274983	-341.2990121431618	18.968486335128382	52.99691662700477	-235.58883146131365	30.293752345559678	22.829939770789668	-333.55152563400657	63.36867304888001	29.71344494772208	-350.1628764870832	52.23970652915649	44.42142265213714	-291.3727564380979	79.42572816964005	63.06089678842768	-260.99502069813735	
32	1.0666666666666667	229.71795054994655	1159.5287899509926	-442.3400890032995	197.54479969607578	984.4105644297401	-558.497219730809	223.53644183401647	900.5756127393845	-394.81947426285643	390.0775184667446	837.0960513322324	-447.57620035281053	505.8345861847898	656.0686820900816	-598.5944945532416	334.0322818372673	763.0648144785796	-699.2356375836384	54.64552338178587	824.3809307933082	-377.48750917947103	-61.425565244134084	698.645021897459	-584.4504775028117	137.95604541078094	759.854860571698	-702.088442189129	358.0306837703499	516.8522426080327	-58.75156699513837	341.47060930663076	411.0904967964012	-448.0871801498677	419.50931371512286	110.07165461081969	-209.43428320325145	153.4068591932539	523.3261195806691	-33.351497444250285	37.55121827664906	416.2200785167447	-411.9232849596366	76.59636849878859	106.68991129077843	-186.02920965523745	426.4889740436829	62.00709377247744	-167.41985976605744	78.32372318519667	49.51167284523722	-138.26109043124862	432.55658525454186	21.92545750371544	-390.1417418072245	496.80825459978627	33.60597459101985	-328.6761028991722	92.41503787333214	47.69375071209049	-366.92144568925374	15.623163175437785	18.44180085637033	-311.53697535171017	98.51479291608494	535.1878152411872	-106.32463147731563	398.7236986387034	526.2585430617751	-138.84986564677232	311.5605410684562	651.153585683006	-47.81868628695006	208.8791008029134	649.5271666192451	-38.87227377649004	282.98328295232557	773.1791093226785	-750.9404587042521	272.7977462075317	819.0185004694765	-725.1713431731024	187.39890296537902	761.3878314070297	-760.120076992949	215.5376837630073	793.3037957870068	-727.7885512537188	-4.195005765157439	429.7684698033856	-384.0687076702599	344.9522176308195	744.5869864037514	-717.8922389247429	27.127333184565963	97.3204121759938	-164.92230250913485	390.41675500159704	85.31283550228459	-215.46551973908788	383.8036616659215	417.5134705045209	-442.41012274280047	228.8926508846056	711.7050246339153	-351.47291771814895	105.2918055876268	89.3450819310398	-195.39927229940184	300.66443909844014	412.4863370447163	-433.31866858255376	-54.32249956044903	671.5405817742658	-560.3990750981791	241.38386314255598	540.1285786382755	-215.8354819499874	525.3576521559719	688.7394583394045	-611.3977388093407	331.23126435829437	771.6484004698817	-669.2028126567437	114.78282022437358	751.9736410266336	-724.687398960801	-71.53397970516055	738.0674672326663	-588.1821267052954	88.2929070425185	432.24192688020526	-407.88434558564023	483.0710168665823	634.1811292221336	-579.2833322222599	469.51160006304224	107.13249290232635	-199.26921220806682	141.11092101527	774.1878673151037	-673.5782523009325	204.43333562305818	908.9246038438095	-539.5117701382808	246.7715124634421	851.3105243947036	-215.89026540218399	228.87409999152518	1016.408535996661	-567.13286334395	162.4624326260693	1015.0631262847454	-548.4127030232129	139.76556798056538	1010.0138367672818	-436.1807904842272	305.2391529346663	1010.2640598652783	-480.1244651503418	223.55976606610338	977.0795595232163	-398.529198180555	236.6497634452988	925.1903689595337	-282.42672393033035	269.2367117051846	728.6298835188463	-127.90137585675315	246.14515227180212	835.4596562340466	-218.97403178652098	424.6816798783404	764.1633040474436	-559.2199784353393	490.1308512755606	727.3328722981586	-511.9939668774853	17.782024090319698	824.5447781751317	-427.1880390342143	-36.38703526768179	699.660420128035	-502.00666105922977	292.9466776404091	586.7431552114148	-211.61593965376886	233.70944964300602	626.9628404708349	-315.99324774628155	158.0749619200461	741.821411280599	-377.72407936543	168.33419095089533	609.8010719403233	-222.23865990434174	303.52504190112626	765.5674350999931	-429.32435168345665	331.8312412807065	460.8440443434373	-259.63680304847827	424.8323466113417	459.45697627622746	-300.0959627738228	120.29185277583778	442.7299484067804	-299.58306964584824	30.309211778278208	529.797045385892	-112.32818608504994	-0.10691661439231337	176.2438034751762	-236.2443944216078	99.18229538353599	293.5078739044732	-336.92032189762	431.31934023748875	299.27010721027244	-342.5012836125047	344.3122217548539	239.7920244822276	-329.049714003211	455.93452577110804	19.998278289140604	-370.6778471756077	479.26225990026796	26.91919904577221	-353.84197251054474	416.26567180590024	42.87191137849985	-309.8520710202408	451.875532253004	55.62818535465175	-296.85018916203865	483.9374416832612	47.58955286859285	-282.3422127334276	45.88523588416298	25.15956218845255	-341.37974335492356	19.55912065288453	52.551134183481075	-235.79214304075836	31.028757511878933	22.086208823720334	-333.6457752961325	64.13060315359803	28.912837429375152	-350.2269380179698	52.91429850152572	43.800513765416135	-291.4986797210479	80.05743492304066	62.52613096822196	-261.1355770637408	
33	1.1	230.19050072945387	1148.3648602780875	-442.9192139189722	198.2905393781411	973.923274000973	-560.1647213268668	224.71556492595153	890.5467863413484	-395.9425412021594	393.05817462561873	825.4109088700989	-439.67350411433574	508.5816684647035	653.838988731544	-601.520749737492	332.7064266533035	758.6227180427188	-697.3388752936958	48.11858356924322	811.9216173105677	-373.62337604542773	-62.39999916911991	691.767595394021	-586.8470626861504	138.17325586665262	752.9151558681311	-702.4745117016573	360.0653542172696	510.885581986533	-57.72738763050347	341.45238980780795	410.4677975069444	-448.88220441618785	419.03025553182977	109.61252450748898	-209.87306773801598	155.38866591402606	514.8089875206963	-32.231420203548936	38.5166975644049	415.3730289760288	-412.94484337181024	78.16209718976496	106.16714540400085	-186.7114566018182	425.89787001285345	61.54752022000146	-167.8056866972618	80.0170104654537	49.00708929893121	-138.901643465278	433.1300030280783	21.8385208508692	-390.5595459969367	497.05240723138814	33.964057962293104	-328.83731458814316	92.83454970086947	47.24492640254635	-367.6373720411054	16.248914070128322	18.236145905066767	-311.84096343236666	100.3374747385373	526.5117463639875	-105.11028435731534	400.6189265969956	521.2930288315619	-137.77256369751376	312.0386986854396	644.561762980196	-45.89642028071006	209.38619096807759	641.6809945293334	-36.933968425666805	280.9279276134818	768.8015353782877	-748.3002968721322	269.55653534891854	813.450918250275	-720.9842521023901	187.90696076723185	754.9397814216231	-760.2419444729034	216.223279760628	785.9871019848375	-727.2268375032646	-3.059822430637876	428.96253057595936	-384.53584196157817	344.0298867402893	741.1019196883985	-716.6661818412929	28.774875415670365	96.896657219965	-165.3705364688436	389.831138718482	84.94926348963455	-215.77959324680472	383.83801646695855	416.95707603530485	-442.87492005198123	230.5934487350468	702.1633920231335	-350.58993137584736	106.7934661342989	88.7696923159878	-196.17943566843275	300.7125465117767	412.1918580278414	-433.520462250095	-56.06088084953601	664.05058729816	-563.2852882353079	243.02860064358606	532.0675680415653	-213.09520839720747	527.0458145165991	687.4732604825776	-613.3640543220102	329.9002678598472	766.1460133773118	-667.0235372515184	115.02729757938458	745.6750936873586	-725.3146287943509	-72.28383655352114	731.3065736233502	-589.8824216489486	89.41382179715193	431.4386833984197	-408.4065437773947	486.8218723433897	630.616495096228	-582.615906142737	469.0486080541999	106.50913307531829	-199.8366663674163	141.3414520484167	766.7137193287261	-673.7033207422077	205.2314411526562	898.3301810136655	-541.6299528039725	247.16364950253578	843.2513209802318	-216.3825187155611	229.59816845678284	1006.0019369740531	-568.5766964425462	163.1700908405412	1004.4817230427927	-549.9282770510603	140.37170012318327	998.7321155585312	-437.75064748080393	305.8865079910498	999.4015999383099	-481.5343960577658	224.4513113711524	967.0072004455759	-400.4538286168019	237.11090508350958	916.3891906928754	-283.7440499713124	269.6379539368425	721.5905309114911	-126.99109123974422	246.61808959890138	827.366637640323	-219.30333422355557	426.2094098908778	758.238026862443	-555.3012097960647	493.68218244509444	720.8701326047075	-511.46701823657946	12.680390736735665	813.4488635385526	-424.32731180532505	-39.7073575563692	690.6513324882135	-503.72823292723365	294.3793290208597	578.9338883886896	-209.08299735255548	235.5560251515321	617.8173446299181	-314.19812690323266	159.80064139138065	731.7141183243615	-377.5417087984554	169.73537618194194	601.3704078968958	-220.6272236753104	305.43573606903817	755.5128070120165	-428.59294905769076	332.8002348235302	457.8979119230581	-259.28910822623044	425.6320465381085	456.65449512053715	-300.1398341031132	121.58144315669688	439.63314047167626	-299.95751195545415	32.24068629835058	523.4514191319785	-110.92134662978006	1.3270622365573885	175.7369977728556	-236.7026127335643	100.32089411127241	292.70554576430226	-338.0112117639786	431.1748487607935	298.5167933468026	-343.32734402764964	343.98707551454476	239.38336454656684	-329.53040555213147	456.45033614481974	20.07765906295704	-371.0109719865399	479.65669643600484	27.167950412607688	-354.07811605285787	416.36584303947785	42.53320261004474	-310.3020098226628	451.81960649585096	55.56623250179469	-297.1488958456686	483.8928709683469	47.77344108435206	-282.53229102051733	46.36846247116051	24.861790610825917	-341.8480592663112	20.723836357748258	52.296726598312425	-236.10411694099835	31.544410277608286	21.83683462073598	-334.03321248048667	64.57754020072836	28.555329830099307	-350.7946011407326	53.73899305388895	43.45515085177102	-291.99853028057487	81.11530356021115	62.07183168516052	-261.7781163983942	
34	1.1333333333333333	229.36698586203778	1141.354094546817	-442.3682479400418	199.43804935302592	967.8421380185913	-561.4977710046987	223.0924864226672	883.6356524879147	-396.5303964466931	396.9578464775441	819.525834899275	-437.83572263123847	511.13769919686933	651.2069555608005	-603.9948283578138	333.96712827735877	757.6662476379734	-695.4817220976403	44.552668411050405	802.8131571218591	-375.5467302835488	-59.759584140121554	688.2823707379932	-594.9033795920967	143.95403907638146	751.2578608233878	-703.8676357402608	362.97816213748837	507.93210659290986	-56.8824267425963	342.6071571645577	410.3785372740953	-448.91564781940997	419.5122886526994	109.24870590233704	-210.0348964677696	158.24245747231538	508.4023558586002	-31.563376569097358	40.324581599781155	415.2792467770795	-413.8253715259877	80.05043706086059	106.1812302062597	-187.45873529992076	426.2480247999901	61.11157682838388	-167.99424383502821	81.92133124114504	48.97376022362955	-139.66454490492785	434.2103234992419	22.080300430720705	-390.8429626420703	497.92335614944307	34.36682987539194	-328.93636425246297	93.43387864232103	47.68998280873971	-368.4728516272234	17.024265824344866	18.924216604313678	-312.31049850497436	103.0729942522891	519.6084552900047	-104.43086395733675	403.4281601331349	519.4299936597315	-136.8307453574319	312.78241411990706	640.7468420847935	-44.373001806494536	210.1821936910323	636.155704364982	-35.525520064859634	281.5369632870733	768.7929358351684	-745.5712657501499	270.4733339625061	812.8796519976968	-717.2340143146336	195.16996613004056	754.4179422353488	-760.2729502261692	222.7371417120564	784.5664738827969	-725.8220548293791	-1.0856539654778008	428.96575919904916	-384.9729452507435	345.06001286938107	740.5445408799881	-715.2943183641758	30.762889918076866	97.16248690261808	-165.78214738284194	390.19079533576576	84.71099707959445	-215.85750633754736	385.0447536132524	416.78386717135396	-442.79872520900403	231.266626174676	695.6720943890456	-349.8121317410068	108.53965280521552	88.64174288483633	-197.09202445610813	301.9276702913653	412.3531962000364	-433.2082844734506	-54.19833387453979	659.9745342243683	-571.8531504928116	245.56364457136982	526.737715375771	-211.072115746003	529.411485681795	685.0930992012784	-615.4075749952375	331.53922993516727	764.5845847523686	-664.9901471680198	121.3794035471143	744.6506818376598	-727.4590717032678	-69.45593340306766	727.9140917157615	-597.2575138714006	91.37553267653631	431.26698193598594	-408.9093182720116	489.6209948028246	627.5939436895111	-585.2966158333177	469.5431612885794	105.93065108857314	-200.1304391151251	146.42842791851865	764.3681768059413	-674.7091675956062	207.10529111112302	892.1320369804102	-543.7432371150204	245.74797802354118	837.9173587965715	-216.58833481977786	230.43665674350376	1000.320152639703	-569.5124131136747	163.99327280288512	997.9371705487321	-551.0093804200695	141.0489481727812	990.7809309042309	-438.9424745872372	306.6283691420885	993.5722864992734	-482.3968202586781	221.86570585604431	960.0522243126716	-401.59192082792936	234.91306131763034	910.4368711544201	-284.49493580181263	269.57240188349067	717.1960823406189	-126.2775395364495	245.41086066263546	822.006500703629	-219.3959869137142	429.04217117112165	754.5603368898834	-555.0152727899432	497.0393976161548	716.5401192149725	-512.5745947696846	10.664078390619613	805.696301070202	-427.2413919152779	-39.58778402975828	685.0510941167317	-511.19197524098206	296.3053002861228	574.2816284996045	-207.28954711853643	237.22198881536727	611.6589333077977	-312.8044470083033	160.1627658540526	724.1251851913499	-377.1238137482802	171.41159977157082	595.0459537786262	-219.25566243771294	305.5945814988721	749.4100084619214	-428.0399430930718	334.8021340680828	456.5928694194562	-258.745254654276	427.494089880199	455.2044189994307	-299.90769735851484	123.70649468767178	437.58866374149073	-300.3835483905808	35.063961231037446	518.9897027599058	-109.96737632595344	3.205447278442561	176.03705361325706	-237.03407319835534	102.06187517541845	292.42619821800656	-339.1410067905297	432.12260764709293	298.0652568104518	-343.5700893886827	344.71585780425505	239.3144054219583	-329.5264694975083	457.4939656598983	20.386798030796047	-371.2447644058082	480.62285354277833	27.551185990223583	-354.23726341577355	417.1494858975834	42.45577595172382	-310.5662733504418	452.502912552805	55.63843132504912	-297.29274933782534	484.5828050737299	47.97356053561442	-282.6231453813358	47.005445007799295	25.473432711177487	-342.4725413269021	22.095216863298024	52.78326195899348	-236.5208652671185	32.21125219992165	22.502537933507966	-334.58075091860997	65.18143509101665	29.099022214317408	-351.51366075350165	54.7493949284797	43.912557421137706	-292.62233344592335	82.38746115685491	62.323588215716526	-262.5143969899294	
